<svg width="1426" height="310" viewBox="0 0 1426 310" fill="none" xmlns="http://www.w3.org/2000/svg">
<path d="M0 4.82373C15.4092 7.27443 30.8362 9.59286 46.2811 11.779V126.37C62.848 126.867 79.4241 127.346 96.0099 127.808C96.0099 91.3164 96.0099 54.8163 96.0099 18.3078C111.453 20.2251 126.926 22.0018 142.424 23.6377C142.424 109.891 142.424 196.172 142.424 282.479C126.943 283.918 111.472 285.499 96.0099 287.223V166.316C79.4063 166.423 62.8303 166.547 46.2811 166.69V293.458C30.8362 295.52 15.4092 297.749 0 300.149V4.82373Z" fill="#246BFD"/>
<path d="M236.263 278.909C213.684 280.348 196.503 276.431 184.666 266.49C172.828 256.551 166.896 240.801 166.896 220.202C166.896 155.587 166.896 90.9699 166.896 26.355C182.394 27.9006 197.91 29.3223 213.444 30.6201C213.444 94.1871 213.444 157.754 213.444 221.321C213.444 229.778 215.422 235.79 219.377 239.362C223.598 242.915 229.522 244.514 237.145 244.159C244.789 243.839 250.507 241.76 254.514 237.949C258.523 234.137 260.875 228.117 260.875 219.908C260.875 158.01 260.875 96.1149 260.875 34.2174C275.837 35.2569 290.829 36.1368 305.792 36.8823C305.792 96.6294 305.792 156.385 305.792 216.151C305.792 235.177 299.859 249.942 287.969 260.814C276.079 271.688 258.869 277.496 236.263 278.909Z" fill="#246BFD"/>
<path d="M330.544 38.1357C354.272 39.1647 378.016 39.9207 401.782 40.3995C424.975 40.8804 442.398 45.7293 453.994 55.3242C465.591 64.917 471.391 78.8547 471.391 97.2969C471.391 135.725 471.391 174.142 471.391 212.553C471.391 230.993 465.582 244.986 453.967 254.526C442.371 264.092 424.975 268.943 401.782 269.289C378.016 269.644 354.253 270.221 330.489 271.022C330.525 193.385 330.544 115.756 330.544 38.1357ZM400.82 236.59C408.462 236.59 414.26 234.813 418.215 231.26C422.463 227.743 424.573 222.094 424.601 214.259C424.601 174.711 424.601 135.156 424.601 95.5897C424.601 87.7567 422.463 82.0803 418.242 78.5607C414.019 75.0432 408.462 73.231 400.846 73.231L377.065 72.8046V236.884L400.82 236.59Z" fill="#246BFD"/>
<path d="M494.34 40.7989C518.085 40.5322 541.84 39.9819 565.605 39.1482C588.798 38.2935 606.167 42.2919 617.763 51.5928C629.361 60.8937 635.132 75.2031 635.132 94.3908C635.132 134.329 635.132 174.302 635.132 214.311C635.132 233.535 629.343 247.88 617.763 257.351C606.194 266.811 588.798 270.995 565.605 270.354C541.859 269.716 518.095 269.298 494.312 269.102L494.34 40.7989ZM564.831 237.176C572.472 237.319 578.271 235.658 582.225 232.193C586.465 228.64 588.584 222.919 588.584 215.032C588.584 174.684 588.584 134.348 588.584 94.017C588.584 86.058 586.465 80.3649 582.225 76.9356C578.271 73.4979 572.472 71.925 564.856 72.1119L541.101 72.6726V236.857C549.011 236.964 556.92 237.176 564.831 237.176Z" fill="#246BFD"/>
<path d="M658.172 34.3999C673.706 33.352 689.229 32.1886 704.746 30.9097C704.746 101.138 704.746 171.36 704.746 241.571C730.273 242.743 755.774 244.156 781.249 245.807V282.851C740.284 278.987 699.269 276.081 658.172 273.897C658.189 194.054 658.189 114.223 658.172 34.3999Z" fill="#246BFD"/>
<path d="M795.106 22.0122C837.327 17.2137 879.466 11.4849 921.524 4.82373V47.0086C894.804 50.0284 868.136 52.8003 841.523 55.3224V127.434L905.119 125.57V167.036C883.955 166.753 862.756 166.547 841.523 166.423V250.234C868.243 252.456 894.911 255.03 921.524 257.962V300.149C879.466 293.593 837.354 288.37 795.134 284.159C795.134 196.768 795.125 109.385 795.106 22.0122Z" fill="#246BFD"/>
<path d="M1227.78 0H1035.39C1019.8 0 1004.85 6.1761 993.823 17.1717C982.798 28.1673 976.603 43.0794 976.603 58.6278V250.501C976.603 266.051 982.798 280.963 993.823 291.957C1004.85 302.952 1019.8 309.128 1035.39 309.128H1227.78C1243.37 309.128 1258.33 302.952 1269.35 291.957C1280.37 280.963 1286.57 266.051 1286.57 250.501V58.6278C1286.57 43.0794 1280.37 28.1673 1269.35 17.1717C1258.33 6.1761 1243.37 0 1227.78 0Z" fill="#246BFD"/>
<path d="M1393.25 55.2719C1390.55 55.8494 1387.98 56.9351 1385.69 58.4681L1339.86 86.291C1332.68 90.6884 1326.78 96.8918 1322.76 104.277C1318.63 111.823 1316.47 120.282 1316.48 128.875V180.363C1316.47 188.977 1318.64 197.452 1322.78 205.012C1326.82 212.419 1332.75 218.633 1339.97 223.026L1386.14 250.849C1389.13 252.691 1392.47 253.898 1395.95 254.392C1399.41 254.875 1402.93 254.629 1406.29 253.674C1409.68 252.695 1412.84 251.046 1415.59 248.823C1418.37 246.546 1420.67 243.749 1422.37 240.588C1424.69 236.26 1425.9 231.426 1425.9 226.518V82.3472C1425.89 78.1682 1424.98 74.0416 1423.23 70.2469C1421.5 66.5173 1418.96 63.214 1415.8 60.5743C1412.7 57.9913 1409.04 56.1644 1405.11 55.2446C1401.21 54.3122 1397.14 54.3206 1393.25 55.2719Z" fill="#246BFD"/>
<path d="M1089.28 254.629C1074.92 254.629 1063.94 250.463 1056.33 242.13C1048.72 233.799 1044.92 222.037 1044.92 206.848V106.913C1044.92 91.6881 1048.72 79.9176 1056.33 71.6037C1063.94 63.2898 1074.92 59.1234 1089.28 59.1045C1103.53 59.1045 1114.5 63.2709 1122.2 71.6037C1129.89 79.9365 1133.7 91.7049 1133.61 106.913V206.848C1133.61 222.037 1129.8 233.799 1122.2 242.13C1114.59 250.463 1103.62 254.629 1089.28 254.629ZM1089.28 227.474C1099.34 227.474 1104.38 221.256 1104.4 208.82V104.996C1104.4 92.5575 1099.36 86.3394 1089.28 86.3394C1079.19 86.3394 1074.14 92.5575 1074.13 104.996V208.74C1074.13 221.248 1079.18 227.491 1089.28 227.474Z" fill="white"/>
<path d="M1188.97 106.913H1158.43V85.728C1165.14 85.9212 1171.84 85.1863 1178.34 83.542C1183.04 82.408 1187.31 79.9593 1190.66 76.4796C1194.2 72.1179 1196.91 67.1535 1198.67 61.8237H1218.31V251.912H1188.97V106.913Z" fill="white"/>
</svg>
